<?xml version="1.0" encoding="utf-8"?>
<!-- Generator: Adobe Illustrator 28.1.0, SVG Export Plug-In . SVG Version: 6.00 Build 0)  -->
<svg version="1.1" id="Layer_1" xmlns="http://www.w3.org/2000/svg" xmlns:xlink="http://www.w3.org/1999/xlink" x="0px" y="0px"
	 viewBox="0 0 214.69 208.12" style="enable-background:new 0 0 214.69 208.12;" xml:space="preserve">
<style type="text/css">
	.st0{fill:#240505;}
	.st1{fill:#ECE6E9;}
	.st2{fill:#FFAB9E;}
	.st3{fill:#EB8C70;}
	.st4{fill:#DC6E58;}
	.st5{opacity:0.38;clip-path:url(#XMLID_00000065047393638034015480000007416147321411014022_);fill:#F86464;}
	.st6{fill:#170202;}
	.st7{fill:#5C2C12;}
	.st8{fill:#FFFFFF;}
	.st9{opacity:0.14;fill:#CF684E;}
	.st10{fill:#CF684E;}
	.st11{fill:#FB7A63;}
	.st12{fill:#2E1A1E;}
	.st13{fill:#FF6C6C;}
	.st14{clip-path:url(#XMLID_00000158024558698214893960000011587570288906357174_);fill:#FFFFFF;}
	.st15{fill:#FF8CA5;}
</style>
<g>
	<g>
		
			<ellipse transform="matrix(0.6639 -0.7478 0.7478 0.6639 -9.1825 89.7152)" class="st0" cx="95.22" cy="55.07" rx="13.46" ry="12.02"/>
		
			<ellipse transform="matrix(0.7376 -0.6753 0.6753 0.7376 -5.056 95.0335)" class="st0" cx="119.74" cy="54.02" rx="12.02" ry="13.46"/>
		<path class="st0" d="M77.64,106.18c-0.57-2.79-2.23-5.25-4.56-7.04c-1.95-1.49-4.39-2.51-7.07-2.86
			c-0.71-0.09-1.43-0.14-2.17-0.13c-4.78,0.04-8.98,2.18-11.46,5.42c-1.52,1.98-2.4,4.37-2.38,6.93
			c0.05,6.76,6.33,12.19,14.03,12.13c0.58,0,1.16-0.04,1.72-0.11c2.3-0.27,4.43-1.02,6.23-2.15c3.59-2.24,5.93-5.93,5.89-10.09
			C77.85,107.57,77.78,106.87,77.64,106.18z"/>
		
			<ellipse transform="matrix(1 -7.624984e-03 7.624984e-03 1 -0.817 1.1594)" class="st0" cx="151.64" cy="107.73" rx="13.94" ry="12.24"/>
		<g>
			<g>
				<path class="st1" d="M130.04,63.63c5.56-2.19,12.4,0.47,15.93,6.48c1.26,2.14,1.94,4.43,2.09,6.68c3.26,1,6.29,3.32,8.27,6.7
					c0.88,1.49,1.47,3.06,1.81,4.63c6.54-1.29,11.14-11.88,12.63-37.45c0.2-3.47-2.96-6.19-6.36-5.45
					C142.3,49.99,131.86,56.26,130.04,63.63z"/>
				<path class="st2" d="M142.47,65.69l10.16,9.93c2.74,2.68,7.37,1.34,8.24-2.4c0.94-4.02,1.63-9.27,2.02-15.96
					c0.15-2.48-2.12-4.42-4.55-3.9c-5.92,1.28-10.67,2.7-14.36,4.26C140.75,59,139.96,63.23,142.47,65.69z"/>
			</g>
			<g>
				<path class="st1" d="M84.85,63.98c-5.59-2.11-12.39,0.66-15.83,6.73c-1.22,2.16-1.87,4.46-1.99,6.71
					c-3.24,1.05-6.24,3.41-8.17,6.82c-0.85,1.5-1.43,3.08-1.73,4.66c-6.56-1.19-11.32-11.71-13.2-37.25
					c-0.26-3.47,2.87-6.23,6.28-5.55C72.38,50.52,82.92,56.63,84.85,63.98z"/>
				<path class="st2" d="M71.75,66.93l-8.47,8.54c-3.11,3.13-8.45,1.6-9.41-2.7c-0.86-3.82-1.52-8.66-1.96-14.65
					c-0.18-2.48,2.05-4.46,4.49-3.97c5.39,1.08,9.81,2.29,13.36,3.63C73.54,59.2,74.6,64.06,71.75,66.93z"/>
			</g>
		</g>
		
			<ellipse transform="matrix(0.9321 -0.3622 0.3622 0.9321 -41.0918 32.1316)" class="st3" cx="65.15" cy="125.65" rx="10.23" ry="16.48"/>
		<path class="st0" d="M75.45,92.22c0.02,2.56-0.86,4.95-2.38,6.93c-1.76,2.3-4.4,4.05-7.48,4.88c-1.26,0.34-2.59,0.53-3.98,0.54
			c-3.54,0.03-6.77-1.11-9.24-2.99c-2.91-2.22-4.76-5.49-4.79-9.14c-0.04-4.92,3.24-9.19,8-11.17c1.77-0.74,3.75-1.16,5.84-1.17
			c3.5-0.03,6.71,1.08,9.17,2.94c2.82,2.12,4.65,5.21,4.84,8.69C75.44,91.88,75.45,92.05,75.45,92.22z"/>
		
			<ellipse transform="matrix(0.9321 -0.3622 0.3622 0.9321 -41.0918 32.1316)" class="st4" cx="65.15" cy="125.65" rx="7.03" ry="11.34"/>
		
			<ellipse transform="matrix(1 -7.624984e-03 7.624984e-03 1 -0.6941 1.1754)" class="st0" cx="153.81" cy="91.62" rx="13.94" ry="12.24"/>
		
			<ellipse transform="matrix(0.348 -0.9375 0.9375 0.348 -19.3391 222.2069)" class="st3" cx="150.08" cy="125.01" rx="16.48" ry="10.23"/>
		
			<ellipse transform="matrix(0.348 -0.9375 0.9375 0.348 -19.3056 222.1832)" class="st4" cx="150.08" cy="124.97" rx="11.34" ry="7.03"/>
		<g>
			<defs>
				<path id="XMLID_00000178177632031098159840000006017247428992124841_" d="M148.57,118.74l-0.13-16.59
					c-0.17-21.82-18.78-39.38-41.57-39.2h0c-22.79,0.17-41.13,18.01-40.96,39.83l0.13,16.59c0.19,24.92,18.82,44.97,41.61,44.8
					C130.44,163.99,148.76,143.66,148.57,118.74z"/>
			</defs>
			<use xlink:href="#XMLID_00000178177632031098159840000006017247428992124841_"  style="overflow:visible;fill:#EB8C70;"/>
			<clipPath id="XMLID_00000041994589156607761290000002777525679700408985_">
				<use xlink:href="#XMLID_00000178177632031098159840000006017247428992124841_"  style="overflow:visible;"/>
			</clipPath>
			
				<circle style="opacity:0.38;clip-path:url(#XMLID_00000041994589156607761290000002777525679700408985_);fill:#F86464;" cx="79.92" cy="147.9" r="10.99"/>
			
				<circle style="opacity:0.38;clip-path:url(#XMLID_00000041994589156607761290000002777525679700408985_);fill:#F86464;" cx="136.05" cy="147.48" r="10.99"/>
		</g>
		<g>
			<path class="st6" d="M70.56,101.76c0.52,2.01,5.36-1.38,11.97-3.08c6.61-1.7,12.48-1.07,11.97-3.08s-7.5-3.88-14.11-2.18
				C73.77,95.13,70.04,99.76,70.56,101.76z"/>
			<path class="st6" d="M143.51,101.21c-0.49,2.01-5.38-1.3-12.01-2.9c-6.63-1.6-12.5-0.88-12.01-2.9
				c0.49-2.01,7.44-3.99,14.08-2.39S143.99,99.19,143.51,101.21z"/>
		</g>
		<ellipse transform="matrix(0.5643 -0.8256 0.8256 0.5643 -60.4647 122.5992)" cx="85.91" cy="118.58" rx="12.21" ry="15.08"/>
		<path d="M75.27,111.27l-0.95,3.95l-4.16-1c-1.09-0.27-1.76-1.36-1.5-2.46c0.22-0.93,1.06-1.55,1.99-1.55
			c0.15,0,0.31,0.02,0.47,0.05L75.27,111.27z"/>
		<path d="M75.12,119.33l-4.24,0.54c-1.12,0.14-2.13-0.65-2.27-1.77c-0.01-0.09-0.02-0.17-0.02-0.26c0-1,0.75-1.88,1.78-2.01
			l4.24-0.54L75.12,119.33z"/>
		<ellipse transform="matrix(0.8169 -0.5768 0.5768 0.8169 -44.6163 95.971)" cx="128.84" cy="118.25" rx="15.08" ry="12.21"/>
		<g>
			<defs>
				<path id="XMLID_00000137818694609864948430000014138738233320592780_" d="M91.01,111.13c5.08,3.47,6.92,9.62,4.11,13.73
					s-9.21,4.63-14.29,1.16c-5.08-3.47-6.92-9.62-4.11-13.73S85.92,107.66,91.01,111.13z M123.64,110.89
					c-5.03,3.55-6.77,9.73-3.9,13.8c2.87,4.07,9.28,4.49,14.31,0.94c5.03-3.55,6.77-9.73,3.9-13.8S128.67,107.34,123.64,110.89z"/>
			</defs>
			<use xlink:href="#XMLID_00000137818694609864948430000014138738233320592780_"  style="overflow:visible;fill:#FFFFFF;"/>
			<clipPath id="XMLID_00000067199147983929639820000006177858466082660489_">
				<use xlink:href="#XMLID_00000137818694609864948430000014138738233320592780_"  style="overflow:visible;"/>
			</clipPath>
		</g>
		<path d="M144.53,113.66l-4.14,1.06l-1.02-3.94l4.14-1.06c0.17-0.04,0.34-0.07,0.51-0.07c0.9,0,1.73,0.61,1.97,1.53
			C146.27,112.27,145.62,113.37,144.53,113.66z"/>
		<path d="M146.15,117.29c0,0.07-0.01,0.15-0.01,0.22c-0.12,1.12-1.13,1.92-2.25,1.8l-3.27-0.36c-0.54-0.07-0.93-0.55-0.87-1.09
			l0.23-2.08c0.06-0.54,0.55-0.93,1.09-0.87l3.27,0.37C145.39,115.39,146.15,116.26,146.15,117.29z"/>
		<circle class="st7" cx="88.5" cy="119.65" r="5.82"/>
		<circle class="st6" cx="88.5" cy="119.65" r="3.94"/>
		<circle class="st7" cx="126.31" cy="119.36" r="5.82"/>
		<circle class="st6" cx="126.31" cy="119.36" r="3.94"/>
		<path class="st8" d="M83.39,118.94L83.39,118.94c-1.38-0.78-3.08,0.22-3.07,1.81v0c0.01,1.58,1.73,2.56,3.1,1.76h0
			C84.78,121.7,84.77,119.72,83.39,118.94z"/>
		<path class="st8" d="M131.63,118.57L131.63,118.57c1.37-0.8,3.09,0.17,3.1,1.76v0c0.01,1.58-1.69,2.59-3.07,1.81l0,0
			C130.28,121.35,130.26,119.37,131.63,118.57z"/>
		<path class="st9" d="M112.14,136.97l-8.28,0.06c-5.34,0.04-7.06-7.16-2.28-9.54l4.68-2.33c1.04-0.52,2.26-0.53,3.31-0.02
			l4.72,2.26C119.1,129.7,117.48,136.93,112.14,136.97z"/>
		<path class="st10" d="M106.83,134.65c-0.09,0.25-0.89,0.2-1.79-0.11c-0.9-0.32-1.55-0.78-1.46-1.04c0.09-0.25,0.95-0.36,1.85-0.04
			C106.32,133.78,106.92,134.4,106.83,134.65z"/>
		<path class="st10" d="M109.14,134.63c0.09,0.25,0.89,0.19,1.79-0.14c0.89-0.33,1.54-0.81,1.45-1.06s-0.95-0.35-1.85-0.01
			C109.64,133.75,109.05,134.38,109.14,134.63z"/>
		<circle class="st0" cx="69.36" cy="79.18" r="13.94"/>
		
			<ellipse transform="matrix(0.7017 -0.7125 0.7125 0.7017 -20.0442 85.5146)" class="st0" cx="92.1" cy="66.69" rx="13.94" ry="12.24"/>
		
			<ellipse transform="matrix(0.7017 -0.7125 0.7125 0.7017 -10.43 107.9946)" class="st0" cx="123.75" cy="66.45" rx="12.24" ry="13.94"/>
		<circle class="st0" cx="146.55" cy="78.59" r="13.94"/>
		
			<ellipse transform="matrix(0.8622 -0.5066 0.5066 0.8622 -14.4556 79.5362)" class="st0" cx="138.96" cy="66.34" rx="12.24" ry="13.94"/>
		
			<ellipse transform="matrix(0.8622 -0.5066 0.5066 0.8622 -18.2106 64.1792)" class="st0" cx="108.85" cy="65.56" rx="12.24" ry="13.94"/>
		
			<ellipse transform="matrix(0.4934 -0.8698 0.8698 0.4934 -19.1554 100.7324)" class="st0" cx="76.9" cy="66.81" rx="13.94" ry="12.24"/>
		<path class="st11" d="M108.33,151.4"/>
		<path class="st8" d="M108.4,152.58L108.4,152.58c0.3-0.1,0.37-0.48,0.14-0.69l0,0c-0.24-0.21-0.61-0.08-0.67,0.23l0,0
			C107.81,152.42,108.11,152.68,108.4,152.58z"/>
		<path class="st8" d="M108.37,152.59L108.37,152.59c0.15-0.05,0.19-0.24,0.07-0.35l0,0c-0.12-0.1-0.3-0.04-0.33,0.11l0,0
			C108.07,152.51,108.22,152.64,108.37,152.59z"/>
		<path class="st12" d="M111.3,145.87c-0.04,0.02-0.08,0.04-0.12,0.07c-0.69,0.41-1.32,0.85-1.88,1.32c-0.56-0.46-1.21-0.9-1.91-1.3
			c-0.04-0.02-0.08-0.04-0.12-0.07c0.04-0.02,0.08-0.04,0.12-0.07c0.69-0.41,1.33-0.86,1.89-1.32c0.57,0.46,1.21,0.9,1.9,1.3
			C111.22,145.82,111.26,145.84,111.3,145.87z"/>
		
			<ellipse transform="matrix(1 -7.624984e-03 7.624984e-03 1 -1.1339 0.8327)" class="st13" cx="108.64" cy="149.13" rx="13.76" ry="9.68"/>
		<g>
			<defs>
				<path id="XMLID_00000123429207713781364570000007764833996127439027_" d="M125.54,145.35c0.01,1.52-0.84,2.94-2.34,4.17
					c-1.2,0.98-2.81,1.84-4.72,2.5c-2.76,0.97-6.15,1.55-9.81,1.58c-3.66,0.03-7.05-0.5-9.82-1.43c-1.43-0.48-2.7-1.06-3.76-1.73
					c-0.36-0.22-0.69-0.46-1-0.7c-1.52-1.2-2.4-2.61-2.41-4.13c-0.01-0.67,0.16-1.17,0.47-1.54c0.08-0.09,0.16-0.18,0.26-0.26
					c0.65-0.53,1.7-0.73,3.08-0.74c0.12,0,0.24,0,0.37,0c3.1,0.04,7.66,0.85,12.74,0.82c3.88-0.03,7.46-0.56,10.31-0.84
					c0.73-0.07,1.42-0.13,2.05-0.16c1.74-0.08,3.07,0.06,3.83,0.68C125.27,143.96,125.53,144.53,125.54,145.35z"/>
			</defs>
			<use xlink:href="#XMLID_00000123429207713781364570000007764833996127439027_"  style="overflow:visible;fill:#5D1D1F;"/>
			<clipPath id="XMLID_00000171685854041837981790000005165790499204555953_">
				<use xlink:href="#XMLID_00000123429207713781364570000007764833996127439027_"  style="overflow:visible;"/>
			</clipPath>
			<path style="clip-path:url(#XMLID_00000171685854041837981790000005165790499204555953_);fill:#FFFFFF;" d="M121.31,143.52
				c0.02,2.21-5.81,4.05-13.01,4.1c-7.2,0.05-13.06-1.69-13.08-3.91c0-0.3,0.1-0.59,0.31-0.87c3.1,0.05,7.66,0.97,12.74,0.94
				c3.88-0.03,7.46-0.62,10.31-0.94c0.87-0.08,1.69-0.15,2.42-0.18C121.2,142.94,121.31,143.23,121.31,143.52z"/>
		</g>
		<path class="st15" d="M117.07,151.63c-2.17,0.93-5,1.51-8.1,1.54c-0.18,0-0.36,0-0.54,0c-0.21,0-0.41-0.01-0.61-0.01
			c-0.15-0.01-0.3-0.01-0.44-0.02c-0.1,0-0.21-0.01-0.31-0.02c-2.45-0.16-4.67-0.66-6.44-1.41c1.44-1.2,3.88-1.75,6.33-0.9
			c1.31,0.46,1.84,0.41,3.15-0.05C112.32,150.01,115.56,150.57,117.07,151.63z"/>
		<path class="st8" d="M118.66,152.13c-2.76,1.1-6.14,1.75-9.8,1.78c-3.66,0.03-7.05-0.58-9.83-1.63c0-0.01,0-0.02,0-0.02
			c0.04-0.41,0.41-0.71,0.82-0.68c2.31,0.17,5.49,0.96,8.99,0.93c2.92-0.02,5.62-0.61,7.76-0.92c0.43-0.05,0.83-0.1,1.22-0.13
			C118.24,151.41,118.62,151.71,118.66,152.13L118.66,152.13z"/>
	</g>
</g>
</svg>
